# xmcd
#
# Track frame offsets:
#	150
#	15221
#	38085
#	55551
#	75522
#	93595
#	111596
#	130701
#	146982
#	165601
#	182185
#	197650
#	213892
#	227227
#	243429
#
# Disc length: 3475 seconds
#
# Revision: 2
# Processed by: cddbd v1.5.2PL0 Copyright (c) Steve Scherf et al.
# Submitted via: audiograbber 1.83.01
#
DISCID=c50d910f
DTITLE=Various Artist - Radio Xtra 804
DYEAR=2004
DGENRE=Pop
TTITLE0=Ronan Keating and Yusuf Islam - Father And Son
TTITLE1=Band Aid 20 - Do They Know It's Christmas?
TTITLE2=Cliff Richard - I Cannot Give You My Love
TTITLE3=Goldie Lookin Chain - You Knows I Love You
TTITLE4=Maroon 5 - Sunday Morning
TTITLE5=Beastie Boys - Open Letter To NYC (Andy Wallace Mix Edit)
TTITLE6=Nelly - Over and Over
TTITLE7=Blue Ft Kool and The Gang and Lil Kim - Get Down On It
TTITLE8=Jadakiss Ft Mariah Carey - U Make Me Wanna
TTITLE9=Nathan - Come Into My Room
TTITLE10=Raghav - Angeleyes
TTITLE11=Zena - All Of Me (Original Redzone Mix)
TTITLE12=Angel J Ft Bronz - Not That Girl
TTITLE13=Soul Central Ft Kathy Brown - Strings Of Life
TTITLE14=Slinkee Minx - Closer
EXTD=
EXTT0=
EXTT1=
EXTT2=
EXTT3=
EXTT4=
EXTT5=
EXTT6=
EXTT7=
EXTT8=
EXTT9=
EXTT10=
EXTT11=
EXTT12=
EXTT13=
EXTT14=
PLAYORDER=
